<svg width="29" height="29" viewBox="0 0 29 29" fill="none" xmlns="http://www.w3.org/2000/svg">
<path d="M14.5 28.5C22.232 28.5 28.5 22.232 28.5 14.5C28.5 6.76801 22.232 0.5 14.5 0.5C6.76801 0.5 0.5 6.76801 0.5 14.5C0.5 22.232 6.76801 28.5 14.5 28.5Z" fill="#FDD835"/>
<path opacity="0.5" d="M14.5 0.5C6.76828 0.5 0.5 6.76828 0.5 14.5C0.5 22.2317 6.76828 28.5 14.5 28.5C22.2317 28.5 28.5 22.2317 28.5 14.5C28.5 6.76828 22.2317 0.5 14.5 0.5ZM14.5 27.8984C7.10023 27.8984 1.10156 21.8998 1.10156 14.5C1.10156 7.10023 7.10023 1.10156 14.5 1.10156C21.8998 1.10156 27.8984 7.10023 27.8984 14.5C27.8984 21.8998 21.8998 27.8984 14.5 27.8984Z" fill="white"/>
<path opacity="0.5" d="M20.0857 1.65883L1.65875 20.0858C1.04297 18.6716 0.653047 17.1343 0.537109 15.5227L15.5226 0.537186C17.1342 0.653123 18.6715 1.04305 20.0857 1.65883Z" fill="white"/>
<path opacity="0.5" d="M26.7002 7.62852L7.62846 26.7002C6.44229 26.0309 5.36385 25.1936 4.42432 24.2202L24.2201 4.42438C25.1935 5.36391 26.0313 6.44235 26.7002 7.62852Z" fill="white"/>
<path opacity="0.5" d="M23.6479 3.90265L3.90193 23.6481C3.59295 23.291 3.30201 22.9175 3.03076 22.5298L22.5296 3.03093C22.9168 3.30218 23.2903 3.59312 23.6479 3.90265Z" fill="white"/>
<path opacity="0.5" d="M28.0607 11.0066L11.0064 28.0609C10.4913 27.9285 9.98816 27.7677 9.49707 27.5801L27.5795 9.49773C27.7671 9.98827 27.9284 10.4919 28.0602 11.0071L28.0607 11.0066Z" fill="white"/>
<path opacity="0.5" d="M25.8733 15.1059C25.8733 21.1637 20.9618 26.0752 14.9041 26.0752C11.5009 26.0752 8.45861 24.5253 6.44775 22.0923C8.45096 24.2579 11.3177 25.6136 14.4999 25.6136C20.5577 25.6136 25.4692 20.7021 25.4692 14.6444C25.4692 11.9904 24.5263 9.55571 22.9568 7.65805C24.7675 9.61477 25.8733 12.231 25.8733 15.1059Z" fill="white"/>
<path d="M14.5 25.6136C20.5581 25.6136 25.4692 20.7025 25.4692 14.6444C25.4692 8.58624 20.5581 3.67516 14.5 3.67516C8.44185 3.67516 3.53076 8.58624 3.53076 14.6444C3.53076 20.7025 8.44185 25.6136 14.5 25.6136Z" fill="#F39E09"/>
<path d="M22.8125 7.48687C20.8913 5.83094 18.3899 4.83016 15.655 4.83016C9.59725 4.83016 4.68576 9.74164 4.68576 15.7994C4.68576 18.5343 5.68709 21.0357 7.34248 22.9569C5.00842 20.9449 3.53076 17.9672 3.53076 14.6444C3.53076 8.58664 8.44225 3.67516 14.5 3.67516C17.8222 3.67516 20.8005 5.15226 22.8125 7.48687Z" fill="#E88102"/>
<path d="M15.933 11.84C16.2403 12.1162 16.394 12.5055 16.394 13.007H19.3537V12.1408C19.3537 12.1408 18.9933 11.3412 18.7702 11.0066C18.3813 10.423 17.8356 9.97351 17.1339 9.65796C16.7484 9.4846 16.3349 9.35937 15.8942 9.28116V7.71655H14.8551V9.18601C14.8212 9.18601 14.5379 9.1871 14.4324 9.19093V7.71655H13.3933V9.30632C13.0088 9.37851 12.6446 9.48296 12.3006 9.62022C11.5733 9.91062 11.0111 10.3164 10.6135 10.8381C10.3647 11.1646 10.0174 11.7776 10.0174 11.7776V12.6439C10.0174 14.0138 10.8153 15.0906 12.4106 15.8743C12.6917 16.0132 13.0192 16.1548 13.3933 16.2998V19.3196C13.2965 19.2655 13.2096 19.2042 13.1335 19.1348C12.7923 18.8219 12.6217 18.3358 12.6217 17.6757L9.64502 16.8094V17.6757C9.64502 18.4878 9.84955 19.2053 10.2581 19.8282C10.6666 20.4511 11.2758 20.9416 12.0846 21.2998C12.4964 21.4819 12.9323 21.6176 13.3928 21.7073V23.3052H14.4318V21.8292C14.5516 21.8347 14.6724 21.8374 14.7949 21.8374C14.8152 21.8374 14.8343 21.8369 14.8546 21.8363V23.3052H15.8936V21.7663C16.7992 21.6438 17.5468 21.3605 18.1353 20.9154C18.9474 20.3007 19.3531 19.4552 19.3531 18.3784V17.5122C19.3531 17.5122 18.4377 15.8294 17.3576 15.2071C16.9529 14.9736 16.4651 14.7516 15.8942 14.5416V11.8105C15.9067 11.8208 15.9204 11.8307 15.933 11.8416V11.84ZM13.3933 13.4604C13.1106 13.2214 12.9689 12.9573 12.9689 12.6685C12.9689 12.3223 13.1106 12.0347 13.3933 11.8055V13.4604ZM14.8551 19.6018C14.8349 19.6018 14.8157 19.6034 14.7955 19.6034C14.6686 19.6034 14.5478 19.5985 14.4324 19.5903V16.6705C14.5828 16.7225 14.7233 16.7744 14.8551 16.8258V19.6023V19.6018ZM14.8551 14.1855C14.7042 14.1325 14.5636 14.0794 14.4324 14.0269V11.4369C14.5138 11.4304 14.5975 11.426 14.6856 11.426C14.7435 11.426 14.7999 11.4282 14.8551 11.4315V14.1855ZM15.9242 17.3793C16.2316 17.6216 16.3853 17.9601 16.3853 18.3943C16.3853 18.7776 16.2425 19.0751 15.9581 19.2862C15.9379 19.3016 15.9155 19.3147 15.8942 19.3289V17.3563C15.904 17.364 15.9149 17.3716 15.9242 17.3793Z" fill="#DB6704"/>
<path d="M17.3585 14.3398C16.9538 14.1062 16.466 13.8842 15.8951 13.6742V10.9431C15.9077 10.9535 15.9213 10.9633 15.9339 10.9743C16.2413 11.2505 16.3949 11.6398 16.3949 12.1413H19.3546C19.3546 11.3916 19.1599 10.7249 18.7711 10.1414C18.3823 9.55788 17.8365 9.10835 17.1348 8.7928C16.7493 8.61944 16.3359 8.49421 15.8951 8.416V6.85139H14.856V8.32085C14.8221 8.32085 14.7882 8.31975 14.7543 8.31975C14.646 8.31975 14.5394 8.32194 14.4338 8.32632V6.85194H13.3948V8.44171C13.0103 8.51389 12.6461 8.61835 12.3021 8.75561C11.5748 9.046 11.0126 9.45179 10.615 9.9735C10.2174 10.4952 10.0189 11.0968 10.0189 11.7793C10.0189 13.1492 10.8168 14.226 12.412 15.0097C12.6931 15.1486 13.0207 15.2902 13.3948 15.4351V18.455C13.298 18.4008 13.211 18.3396 13.135 18.2701C12.7937 17.9573 12.6231 17.4712 12.6231 16.8111H9.64648C9.64648 17.6232 9.85102 18.3407 10.2595 18.9636C10.668 19.5865 11.2773 20.077 12.0861 20.4352C12.4979 20.6173 12.9337 20.753 13.3942 20.8426V22.4406H14.4333V20.9646C14.553 20.9701 14.6739 20.9728 14.7964 20.9728C14.8166 20.9728 14.8358 20.9723 14.856 20.9717V22.4406H15.8951V20.9017C16.8007 20.7792 17.5483 20.4959 18.1367 20.0508C18.9488 19.4361 19.3546 18.5906 19.3546 17.5138C19.3546 16.1663 18.6891 15.1092 17.3591 14.3425L17.3585 14.3398ZM14.6859 10.5598C14.7439 10.5598 14.8002 10.5619 14.8555 10.5652V13.3193C14.7045 13.2662 14.564 13.2132 14.4327 13.1607V10.5707C14.5142 10.5641 14.5979 10.5598 14.6859 10.5598ZM12.9693 11.8028C12.9693 11.4566 13.1109 11.169 13.3937 10.9398V12.5947C13.1109 12.3557 12.9693 12.0916 12.9693 11.8028ZM14.7959 18.7372C14.669 18.7372 14.5481 18.7323 14.4327 18.7241V15.8043C14.5831 15.8562 14.7237 15.9082 14.8555 15.9596V18.7361C14.8352 18.7361 14.8161 18.7377 14.7959 18.7377V18.7372ZM15.9585 18.42C15.9383 18.4353 15.9159 18.4484 15.8945 18.4626V16.4901C15.9044 16.4977 15.9153 16.5054 15.9246 16.513C16.232 16.7553 16.3856 17.0938 16.3856 17.528C16.3856 17.9114 16.2429 18.2089 15.9585 18.42Z" fill="#FDD835"/>
<path opacity="0.5" d="M12.3007 8.75398C12.6113 8.63038 12.9378 8.53359 13.2818 8.46249L10.0181 11.7262C10.0279 11.0651 10.2264 10.4805 10.6136 9.97242C11.0112 9.45124 11.5739 9.04492 12.3007 8.75452V8.75398Z" fill="white"/>
<path opacity="0.5" d="M13.3936 6.85031H14.4332V7.31133L13.3936 8.35039V6.85031Z" fill="white"/>
<path opacity="0.5" d="M14.8938 6.85031L14.8555 6.88859V6.85031H14.8938Z" fill="white"/>
<path opacity="0.5" d="M18.7611 15.568C18.4319 15.0988 17.9643 14.6892 17.3584 14.3403C16.9537 14.1063 16.4659 13.8848 15.8949 13.6742V12.7505L13.2628 15.3827C13.3055 15.3996 13.3492 15.4166 13.3941 15.4341V18.4534C13.2973 18.3998 13.2103 18.338 13.1343 18.2685C12.793 17.9557 12.623 17.4695 12.623 16.8095H11.836L10.0488 18.5966C10.1117 18.7213 10.1823 18.8433 10.2594 18.9614C10.6679 19.5843 11.2766 20.0748 12.0859 20.433C12.4977 20.6152 12.9336 20.7508 13.3941 20.8399V20.9351L15.8949 18.4342V16.4906C15.9048 16.4983 15.9157 16.5054 15.925 16.513C16.2323 16.7553 16.386 17.0938 16.386 17.528C16.386 17.7298 16.3461 17.9081 16.2673 18.0618L18.7611 15.568ZM14.8553 18.7356C14.8351 18.7361 14.8159 18.7372 14.7957 18.7372C14.6688 18.7372 14.548 18.7328 14.4326 18.7241V15.8038C14.5824 15.8557 14.7235 15.9077 14.8553 15.9591V18.7356Z" fill="white"/>
<path opacity="0.5" d="M19.3537 12.1413H16.5034L18.6592 9.98553C18.698 10.0364 18.7347 10.0883 18.7702 10.1414C19.1596 10.7244 19.3537 11.3916 19.3537 12.1413Z" fill="white"/>
<path opacity="0.5" d="M9.64551 16.8094H10.7409L9.75652 17.7938C9.6827 17.4827 9.64551 17.1545 9.64551 16.8094Z" fill="white"/>
<path opacity="0.5" d="M14.4331 11.128V13.118L12.4999 15.0512C12.4698 15.037 12.4403 15.0223 12.4113 15.008C11.9694 14.7915 11.5899 14.5525 11.2705 14.2905L13.1824 12.3787C13.2409 12.453 13.3109 12.5247 13.3935 12.5947V12.1676L14.4325 11.1285L14.4331 11.128Z" fill="white"/>
<path opacity="0.5" d="M18.1318 9.41898L16.2155 11.3352C16.1434 11.1991 16.0493 11.0782 15.9334 10.9743C15.9213 10.9628 15.9071 10.9535 15.8945 10.9431V11.6562L14.8555 12.6953V10.7052L16.8756 8.68507C16.9631 8.71789 17.0495 8.75398 17.1343 8.79171C17.5116 8.96125 17.8441 9.1707 18.1318 9.41843V9.41898Z" fill="white"/>
<path opacity="0.5" d="M14.8555 22.2219L15.8945 21.1823V22.4379H14.8555V22.2219Z" fill="white"/>
<path opacity="0.5" d="M19.3485 17.7287C19.2971 18.7027 18.893 19.4755 18.1366 20.048C17.6237 20.4374 16.9877 20.7021 16.2324 20.8448L19.348 17.7293L19.3485 17.7287Z" fill="white"/>
<path opacity="0.25" d="M23.6479 8.59046C16.5445 11.0842 10.8439 16.5612 8.04992 23.5174C7.80547 23.3397 7.56867 23.1516 7.34062 22.9541C5.68578 21.0335 4.68555 18.5327 4.68555 15.7988C4.68555 9.74109 9.59703 4.82961 15.6548 4.82961C18.3886 4.82961 20.8895 5.82984 22.8101 7.48468C23.112 7.83468 23.392 8.20382 23.6484 8.59046H23.6479Z" fill="white"/>
</svg>
