<svg width="24" height="24" viewBox="0 0 24 24" fill="none" xmlns="http://www.w3.org/2000/svg">
<path d="M12 24C18.6274 24 24 18.6274 24 12C24 5.37258 18.6274 0 12 0C5.37258 0 0 5.37258 0 12C0 18.6274 5.37258 24 12 24Z" fill="#FDD835"/>
<path opacity="0.5" d="M12 0C5.37281 0 0 5.37281 0 12C0 18.6272 5.37281 24 12 24C18.6272 24 24 18.6272 24 12C24 5.37281 18.6272 0 12 0ZM12 23.4844C5.65734 23.4844 0.515625 18.3427 0.515625 12C0.515625 5.65734 5.65734 0.515625 12 0.515625C18.3427 0.515625 23.4844 5.65734 23.4844 12C23.4844 18.3427 18.3427 23.4844 12 23.4844Z" fill="white"/>
<path opacity="0.5" d="M16.7879 0.993267L0.993389 16.7878C0.465576 15.5756 0.131357 14.258 0.0319824 12.8765L12.8767 0.0318604C14.2581 0.131235 15.5757 0.465454 16.7879 0.993267Z" fill="white"/>
<path opacity="0.5" d="M22.4574 6.11018L6.11018 22.4574C5.09346 21.8836 4.16908 21.166 3.36377 20.3316L20.3316 3.36377C21.166 4.16908 21.8841 5.09346 22.4574 6.11018Z" fill="white"/>
<path opacity="0.5" d="M19.8413 2.9165L2.91615 19.8412C2.65131 19.5351 2.40193 19.2149 2.16943 18.8826L18.8827 2.16931C19.2146 2.40181 19.5347 2.65119 19.8413 2.9165Z" fill="white"/>
<path opacity="0.5" d="M23.6236 9.00556L9.00566 23.6235C8.5641 23.5101 8.13285 23.3723 7.71191 23.2115L23.2111 7.71228C23.3719 8.13275 23.5102 8.56447 23.6232 9.00603L23.6236 9.00556Z" fill="white"/>
<path opacity="0.5" d="M21.7486 12.5194C21.7486 17.7117 17.5388 21.9216 12.3464 21.9216C9.42939 21.9216 6.82174 20.5932 5.09814 18.5077C6.81518 20.3639 9.27236 21.526 12 21.526C17.1924 21.526 21.4022 17.3161 21.4022 12.1238C21.4022 9.84894 20.5941 7.76206 19.2488 6.1355C20.8008 7.81269 21.7486 10.0552 21.7486 12.5194Z" fill="white"/>
<path d="M12.0001 21.5259C17.1928 21.5259 21.4023 17.3164 21.4023 12.1237C21.4023 6.93106 17.1928 2.72156 12.0001 2.72156C6.8074 2.72156 2.5979 6.93106 2.5979 12.1237C2.5979 17.3164 6.8074 21.5259 12.0001 21.5259Z" fill="#F39E09"/>
<path d="M19.1251 5.98874C17.4784 4.56937 15.3343 3.71156 12.9901 3.71156C7.79774 3.71156 3.5879 7.9214 3.5879 13.1137C3.5879 15.458 4.44618 17.602 5.86509 19.2487C3.86446 17.5242 2.5979 14.9719 2.5979 12.1237C2.5979 6.9314 6.80774 2.72156 12.0001 2.72156C14.8477 2.72156 17.4006 3.98765 19.1251 5.98874Z" fill="#E88102"/>
<path d="M13.2286 9.71992C13.492 9.95664 13.6237 10.2904 13.6237 10.7202H16.1606V9.97773C16.1606 9.97773 15.8517 9.29242 15.6604 9.00555C15.3271 8.50539 14.8593 8.12008 14.2579 7.84961C13.9275 7.70102 13.5731 7.59367 13.1953 7.52664V6.18555H12.3046V7.44508C12.2756 7.44508 12.0328 7.44602 11.9423 7.4493V6.18555H11.0517V7.5482C10.7221 7.61008 10.41 7.69961 10.1151 7.81727C9.49168 8.06617 9.0098 8.41398 8.66902 8.86117C8.45574 9.14102 8.15809 9.66648 8.15809 9.66648V10.409C8.15809 11.5832 8.84199 12.5062 10.2093 13.1779C10.4503 13.297 10.7311 13.4184 11.0517 13.5426V16.131C10.9687 16.0846 10.8942 16.0321 10.829 15.9726C10.5365 15.7045 10.3903 15.2877 10.3903 14.722L7.83887 13.9795V14.722C7.83887 15.418 8.01418 16.033 8.36434 16.567C8.71449 17.1009 9.23668 17.5213 9.92996 17.8284C10.2829 17.9845 10.6565 18.1007 11.0512 18.1776V19.5473H11.9418V18.2821C12.0445 18.2868 12.1481 18.2891 12.2531 18.2891C12.2704 18.2891 12.2868 18.2887 12.3042 18.2882V19.5473H13.1948V18.2282C13.9711 18.1232 14.6118 17.8804 15.1162 17.4988C15.8123 16.972 16.1601 16.2473 16.1601 15.3243V14.5818C16.1601 14.5818 15.3754 13.1395 14.4496 12.606C14.1028 12.4059 13.6846 12.2155 13.1953 12.0355V9.69461C13.2061 9.70352 13.2178 9.71195 13.2286 9.72133V9.71992ZM11.0517 11.1088C10.8093 10.904 10.6879 10.6776 10.6879 10.4301C10.6879 10.1334 10.8093 9.8868 11.0517 9.69039V11.1088ZM12.3046 16.3729C12.2873 16.3729 12.2709 16.3743 12.2536 16.3743C12.1448 16.3743 12.0412 16.3701 11.9423 16.363V13.8604C12.0712 13.9049 12.1917 13.9495 12.3046 13.9935V16.3734V16.3729ZM12.3046 11.7304C12.1753 11.6849 12.0548 11.6395 11.9423 11.5945V9.37445C12.0121 9.36883 12.0839 9.36508 12.1593 9.36508C12.209 9.36508 12.2573 9.36695 12.3046 9.36977V11.7304ZM13.2211 14.4679C13.4845 14.6755 13.6162 14.9657 13.6162 15.3379C13.6162 15.6665 13.4939 15.9215 13.2501 16.1024C13.2328 16.1155 13.2136 16.1268 13.1953 16.139V14.4482C13.2037 14.4548 13.2131 14.4613 13.2211 14.4679Z" fill="#DB6704"/>
<path d="M14.4502 11.8626C14.1033 11.6624 13.6852 11.4721 13.1958 11.2921V8.95116C13.2066 8.96006 13.2183 8.9685 13.2291 8.97788C13.4925 9.21459 13.6242 9.54834 13.6242 9.97819H16.1611C16.1611 9.33553 15.9942 8.76413 15.6609 8.26397C15.3277 7.76381 14.8598 7.3785 14.2584 7.10803C13.928 6.95944 13.5736 6.85209 13.1958 6.78506V5.44397H12.3052V6.7035C12.2761 6.7035 12.247 6.70256 12.218 6.70256C12.1252 6.70256 12.0337 6.70444 11.9433 6.70819V5.44444H11.0527V6.80709C10.7231 6.86897 10.4109 6.9585 10.1161 7.07616C9.49266 7.32506 9.01078 7.67288 8.67 8.12006C8.32922 8.56725 8.15906 9.08288 8.15906 9.66788C8.15906 10.8421 8.84297 11.7651 10.2103 12.4368C10.4513 12.5558 10.732 12.6773 11.0527 12.8015V15.3899C10.9697 15.3435 10.8952 15.291 10.83 15.2315C10.5375 14.9633 10.3912 14.5466 10.3912 13.9808H7.83984C7.83984 14.6769 8.01516 15.2919 8.36531 15.8258C8.71547 16.3598 9.23766 16.7802 9.93094 17.0873C10.2839 17.2433 10.6575 17.3596 11.0522 17.4365V18.8062H11.9428V17.541C12.0455 17.5457 12.1491 17.548 12.2541 17.548C12.2714 17.548 12.2878 17.5476 12.3052 17.5471V18.8062H13.1958V17.4871C13.972 17.3821 14.6128 17.1393 15.1172 16.7577C15.8133 16.2308 16.1611 15.5062 16.1611 14.5832C16.1611 13.4282 15.5906 12.5221 14.4506 11.8649L14.4502 11.8626ZM12.1594 8.62256C12.2091 8.62256 12.2573 8.62444 12.3047 8.62725V10.9879C12.1753 10.9424 12.0548 10.8969 11.9423 10.8519V8.63194C12.0122 8.62631 12.0839 8.62256 12.1594 8.62256ZM10.688 9.68803C10.688 9.39131 10.8094 9.14475 11.0517 8.94834V10.3668C10.8094 10.1619 10.688 9.93553 10.688 9.68803ZM12.2536 15.6318C12.1448 15.6318 12.0412 15.6276 11.9423 15.6205V13.1179C12.0712 13.1624 12.1917 13.2069 12.3047 13.251V15.6308C12.2873 15.6308 12.2709 15.6323 12.2536 15.6323V15.6318ZM13.2502 15.3599C13.2328 15.373 13.2136 15.3843 13.1953 15.3965V13.7057C13.2037 13.7123 13.2131 13.7188 13.2211 13.7254C13.4845 13.933 13.6163 14.2232 13.6163 14.5954C13.6163 14.924 13.4939 15.179 13.2502 15.3599Z" fill="#FDD835"/>
<path opacity="0.5" d="M10.1153 7.07479C10.3815 6.96886 10.6613 6.88589 10.9562 6.82495L8.15869 9.62245C8.16713 9.05573 8.33729 8.55464 8.66916 8.11917C9.00994 7.67245 9.49228 7.32417 10.1153 7.07526V7.07479Z" fill="white"/>
<path opacity="0.5" d="M11.0518 5.44312H11.9429V5.83827L11.0518 6.7289V5.44312Z" fill="white"/>
<path opacity="0.5" d="M12.3375 5.44312L12.3047 5.47593V5.44312H12.3375Z" fill="white"/>
<path opacity="0.5" d="M15.6525 12.9155C15.3703 12.5133 14.9695 12.1622 14.4501 11.8631C14.1033 11.6625 13.6851 11.4727 13.1958 11.2922V10.5005L10.9397 12.7566C10.9762 12.7711 11.0137 12.7856 11.0522 12.8006V15.3886C10.9692 15.3427 10.8947 15.2897 10.8295 15.2302C10.537 14.9621 10.3912 14.5453 10.3912 13.9796H9.71669L8.18481 15.5114C8.23872 15.6183 8.29919 15.7228 8.36528 15.8241C8.71544 16.358 9.23716 16.7785 9.93091 17.0855C10.2839 17.2416 10.6575 17.3578 11.0522 17.4342V17.5158L13.1958 15.3722V13.7063C13.2042 13.7128 13.2136 13.7189 13.2215 13.7255C13.485 13.9331 13.6167 14.2233 13.6167 14.5955C13.6167 14.7685 13.5825 14.9213 13.515 15.053L15.6525 12.9155ZM12.3047 15.6305C12.2873 15.631 12.2709 15.6319 12.2536 15.6319C12.1448 15.6319 12.0412 15.6281 11.9423 15.6206V13.1175C12.0708 13.1621 12.1917 13.2066 12.3047 13.2506V15.6305Z" fill="white"/>
<path opacity="0.5" d="M16.1607 9.97831H13.7175L15.5653 8.13049C15.5986 8.17409 15.63 8.21862 15.6605 8.26409C15.9942 8.76377 16.1607 9.33565 16.1607 9.97831Z" fill="white"/>
<path opacity="0.5" d="M7.83936 13.9795H8.77826L7.93451 14.8232C7.87123 14.5565 7.83936 14.2753 7.83936 13.9795Z" fill="white"/>
<path opacity="0.5" d="M11.943 9.10962V10.8154L10.2859 12.4724C10.2601 12.4602 10.2348 12.4476 10.21 12.4354C9.83124 12.2498 9.50593 12.0449 9.23218 11.8204L10.8709 10.1817C10.9211 10.2454 10.9811 10.3068 11.0519 10.3668V10.0007L11.9425 9.11009L11.943 9.10962Z" fill="white"/>
<path opacity="0.5" d="M15.113 7.64481L13.4705 9.28731C13.4086 9.17059 13.328 9.067 13.2286 8.97793C13.2183 8.96809 13.2061 8.96012 13.1953 8.95122V9.56247L12.3047 10.4531V8.74731L14.0363 7.01575C14.1113 7.04387 14.1853 7.07481 14.258 7.10715C14.5814 7.25247 14.8664 7.432 15.113 7.64434V7.64481Z" fill="white"/>
<path opacity="0.5" d="M12.3047 18.6188L13.1953 17.7277V18.8039H12.3047V18.6188Z" fill="white"/>
<path opacity="0.5" d="M16.156 14.7675C16.112 15.6023 15.7656 16.2646 15.1173 16.7554C14.6776 17.0892 14.1325 17.316 13.4851 17.4384L16.1556 14.7679L16.156 14.7675Z" fill="white"/>
<path opacity="0.25" d="M19.8413 6.93465C13.7527 9.07215 8.86648 13.7667 6.47164 19.7292C6.26211 19.5768 6.05914 19.4156 5.86367 19.2464C4.44523 17.6001 3.58789 15.4565 3.58789 13.1132C3.58789 7.9209 7.79773 3.71106 12.9901 3.71106C15.3334 3.71106 17.477 4.5684 19.1232 5.98684C19.382 6.28684 19.622 6.60325 19.8418 6.93465H19.8413Z" fill="white"/>
</svg>
