<svg width="24" height="24" viewBox="0 0 24 24" fill="none" xmlns="http://www.w3.org/2000/svg">
<path d="M12 24C18.6274 24 24 18.6274 24 12C24 5.37258 18.6274 0 12 0C5.37258 0 0 5.37258 0 12C0 18.6274 5.37258 24 12 24Z" fill="#FDD835"/>
<path opacity="0.5" d="M12 0C5.37281 0 0 5.37281 0 12C0 18.6272 5.37281 24 12 24C18.6272 24 24 18.6272 24 12C24 5.37281 18.6272 0 12 0ZM12 23.4844C5.65734 23.4844 0.515625 18.3427 0.515625 12C0.515625 5.65734 5.65734 0.515625 12 0.515625C18.3427 0.515625 23.4844 5.65734 23.4844 12C23.4844 18.3427 18.3427 23.4844 12 23.4844Z" fill="white"/>
<path opacity="0.5" d="M16.7879 0.993267L0.993389 16.7878C0.465576 15.5756 0.131357 14.258 0.0319824 12.8765L12.8767 0.0318604C14.2581 0.131235 15.5757 0.465454 16.7879 0.993267Z" fill="white"/>
<path opacity="0.5" d="M22.4574 6.11011L6.11018 22.4573C5.09346 21.8836 4.16908 21.1659 3.36377 20.3315L20.3316 3.36371C21.166 4.16902 21.8841 5.0934 22.4574 6.11011Z" fill="white"/>
<path opacity="0.5" d="M19.8413 2.91656L2.91615 19.8412C2.65131 19.5352 2.40193 19.215 2.16943 18.8827L18.8827 2.16937C19.2146 2.40187 19.5347 2.65125 19.8413 2.91656Z" fill="white"/>
<path opacity="0.5" d="M23.6236 9.00562L9.00566 23.6236C8.5641 23.5102 8.13285 23.3723 7.71191 23.2116L23.2111 7.71234C23.3719 8.13281 23.5102 8.56453 23.6232 9.00609L23.6236 9.00562Z" fill="white"/>
<path opacity="0.5" d="M21.7486 12.5193C21.7486 17.7117 17.5388 21.9215 12.3464 21.9215C9.42939 21.9215 6.82174 20.5931 5.09814 18.5076C6.81518 20.3639 9.27236 21.5259 12 21.5259C17.1924 21.5259 21.4022 17.3161 21.4022 12.1237C21.4022 9.84888 20.5941 7.762 19.2488 6.13544C20.8008 7.81262 21.7486 10.0551 21.7486 12.5193Z" fill="white"/>
<path d="M12.0001 21.5259C17.1928 21.5259 21.4023 17.3164 21.4023 12.1237C21.4023 6.93106 17.1928 2.72156 12.0001 2.72156C6.8074 2.72156 2.5979 6.93106 2.5979 12.1237C2.5979 17.3164 6.8074 21.5259 12.0001 21.5259Z" fill="#F39E09"/>
<path d="M19.1251 5.98874C17.4784 4.56937 15.3343 3.71156 12.9901 3.71156C7.79774 3.71156 3.5879 7.9214 3.5879 13.1137C3.5879 15.458 4.44618 17.602 5.86509 19.2487C3.86446 17.5242 2.5979 14.9719 2.5979 12.1237C2.5979 6.9314 6.80774 2.72156 12.0001 2.72156C14.8477 2.72156 17.4006 3.98765 19.1251 5.98874Z" fill="#E88102"/>
<path d="M13.2286 9.72004C13.492 9.95676 13.6237 10.2905 13.6237 10.7204H16.1606V9.97786C16.1606 9.97786 15.8517 9.29254 15.6604 9.00567C15.3271 8.50551 14.8593 8.1202 14.2579 7.84973C13.9275 7.70114 13.5731 7.59379 13.1953 7.52676V6.18567H12.3046V7.4452C12.2756 7.4452 12.0328 7.44614 11.9423 7.44942V6.18567H11.0517V7.54832C10.7221 7.6102 10.41 7.69973 10.1151 7.81739C9.49168 8.06629 9.0098 8.41411 8.66902 8.86129C8.45574 9.14114 8.15809 9.66661 8.15809 9.66661V10.4091C8.15809 11.5833 8.84199 12.5063 10.2093 13.178C10.4503 13.2971 10.7311 13.4185 11.0517 13.5427V16.1311C10.9687 16.0847 10.8942 16.0322 10.829 15.9727C10.5365 15.7046 10.3903 15.2879 10.3903 14.7221L7.83887 13.9796V14.7221C7.83887 15.4182 8.01418 16.0332 8.36434 16.5671C8.71449 17.101 9.23668 17.5215 9.92996 17.8285C10.2829 17.9846 10.6565 18.1008 11.0512 18.1777V19.5474H11.9418V18.2822C12.0445 18.2869 12.1481 18.2893 12.2531 18.2893C12.2704 18.2893 12.2868 18.2888 12.3042 18.2883V19.5474H13.1948V18.2283C13.9711 18.1233 14.6118 17.8805 15.1162 17.499C15.8123 16.9721 16.1601 16.2474 16.1601 15.3244V14.5819C16.1601 14.5819 15.3754 13.1396 14.4496 12.6061C14.1028 12.406 13.6846 12.2157 13.1953 12.0357V9.69473C13.2061 9.70364 13.2178 9.71207 13.2286 9.72145V9.72004ZM11.0517 11.109C10.8093 10.9041 10.6879 10.6777 10.6879 10.4302C10.6879 10.1335 10.8093 9.88692 11.0517 9.69051V11.109ZM12.3046 16.373C12.2873 16.373 12.2709 16.3744 12.2536 16.3744C12.1448 16.3744 12.0412 16.3702 11.9423 16.3632V13.8605C12.0712 13.905 12.1917 13.9496 12.3046 13.9936V16.3735V16.373ZM12.3046 11.7305C12.1753 11.685 12.0548 11.6396 11.9423 11.5946V9.37458C12.0121 9.36895 12.0839 9.3652 12.1593 9.3652C12.209 9.3652 12.2573 9.36707 12.3046 9.36989V11.7305ZM13.2211 14.468C13.4845 14.6757 13.6162 14.9658 13.6162 15.338C13.6162 15.6666 13.4939 15.9216 13.2501 16.1025C13.2328 16.1157 13.2136 16.1269 13.1953 16.1391V14.4483C13.2037 14.4549 13.2131 14.4614 13.2211 14.468Z" fill="#DB6704"/>
<path d="M14.4502 11.8627C14.1033 11.6625 13.6852 11.4722 13.1958 11.2922V8.95128C13.2066 8.96019 13.2183 8.96862 13.2291 8.978C13.4925 9.21472 13.6242 9.54847 13.6242 9.97831H16.1611C16.1611 9.33565 15.9942 8.76425 15.6609 8.26409C15.3277 7.76394 14.8598 7.37862 14.2584 7.10815C13.928 6.95956 13.5736 6.85222 13.1958 6.78519V5.44409H12.3052V6.70362C12.2761 6.70362 12.247 6.70269 12.218 6.70269C12.1252 6.70269 12.0337 6.70456 11.9433 6.70831V5.44456H11.0527V6.80722C10.7231 6.86909 10.4109 6.95862 10.1161 7.07628C9.49266 7.32519 9.01078 7.673 8.67 8.12019C8.32922 8.56737 8.15906 9.083 8.15906 9.668C8.15906 10.8422 8.84297 11.7652 10.2103 12.4369C10.4513 12.556 10.732 12.6774 11.0527 12.8016V15.39C10.9697 15.3436 10.8952 15.2911 10.83 15.2316C10.5375 14.9635 10.3912 14.5467 10.3912 13.981H7.83984C7.83984 14.6771 8.01516 15.2921 8.36531 15.826C8.71547 16.3599 9.23766 16.7803 9.93094 17.0874C10.2839 17.2435 10.6575 17.3597 11.0522 17.4366V18.8063H11.9428V17.5411C12.0455 17.5458 12.1491 17.5482 12.2541 17.5482C12.2714 17.5482 12.2878 17.5477 12.3052 17.5472V18.8063H13.1958V17.4872C13.972 17.3822 14.6128 17.1394 15.1172 16.7578C15.8133 16.231 16.1611 15.5063 16.1611 14.5833C16.1611 13.4283 15.5906 12.5222 14.4506 11.865L14.4502 11.8627ZM12.1594 8.62269C12.2091 8.62269 12.2573 8.62456 12.3047 8.62737V10.988C12.1753 10.9425 12.0548 10.8971 11.9423 10.8521V8.63206C12.0122 8.62644 12.0839 8.62269 12.1594 8.62269ZM10.688 9.68815C10.688 9.39144 10.8094 9.14487 11.0517 8.94847V10.3669C10.8094 10.1621 10.688 9.93565 10.688 9.68815ZM12.2536 15.6319C12.1448 15.6319 12.0412 15.6277 11.9423 15.6207V13.118C12.0712 13.1625 12.1917 13.2071 12.3047 13.2511V15.631C12.2873 15.631 12.2709 15.6324 12.2536 15.6324V15.6319ZM13.2502 15.36C13.2328 15.3732 13.2136 15.3844 13.1953 15.3966V13.7058C13.2037 13.7124 13.2131 13.7189 13.2211 13.7255C13.4845 13.9332 13.6163 14.2233 13.6163 14.5955C13.6163 14.9241 13.4939 15.1791 13.2502 15.36Z" fill="#FDD835"/>
<path opacity="0.5" d="M10.1153 7.07486C10.3815 6.96892 10.6613 6.88595 10.9562 6.82501L8.15869 9.62251C8.16713 9.05579 8.33729 8.5547 8.66916 8.11923C9.00994 7.67251 9.49228 7.32423 10.1153 7.07532V7.07486Z" fill="white"/>
<path opacity="0.5" d="M11.0518 5.44318H11.9429V5.83833L11.0518 6.72896V5.44318Z" fill="white"/>
<path opacity="0.5" d="M12.3375 5.44318L12.3047 5.47599V5.44318H12.3375Z" fill="white"/>
<path opacity="0.5" d="M15.6525 12.9155C15.3703 12.5133 14.9695 12.1622 14.4501 11.8631C14.1033 11.6625 13.6851 11.4727 13.1958 11.2922V10.5005L10.9397 12.7566C10.9762 12.7711 11.0137 12.7856 11.0522 12.8006V15.3886C10.9692 15.3427 10.8947 15.2897 10.8295 15.2302C10.537 14.9621 10.3912 14.5453 10.3912 13.9796H9.71669L8.18481 15.5114C8.23872 15.6183 8.29919 15.7228 8.36528 15.8241C8.71544 16.358 9.23716 16.7785 9.93091 17.0855C10.2839 17.2416 10.6575 17.3578 11.0522 17.4342V17.5158L13.1958 15.3722V13.7063C13.2042 13.7128 13.2136 13.7189 13.2215 13.7255C13.485 13.9331 13.6167 14.2233 13.6167 14.5955C13.6167 14.7685 13.5825 14.9213 13.515 15.053L15.6525 12.9155ZM12.3047 15.6305C12.2873 15.631 12.2709 15.6319 12.2536 15.6319C12.1448 15.6319 12.0412 15.6281 11.9423 15.6206V13.1175C12.0708 13.1621 12.1917 13.2066 12.3047 13.2506V15.6305Z" fill="white"/>
<path opacity="0.5" d="M16.1607 9.97831H13.7175L15.5653 8.13049C15.5986 8.17409 15.63 8.21862 15.6605 8.26409C15.9942 8.76377 16.1607 9.33565 16.1607 9.97831Z" fill="white"/>
<path opacity="0.5" d="M7.83936 13.9796H8.77826L7.93451 14.8233C7.87123 14.5566 7.83936 14.2753 7.83936 13.9796Z" fill="white"/>
<path opacity="0.5" d="M11.943 9.10974V10.8155L10.2859 12.4726C10.2601 12.4604 10.2348 12.4477 10.21 12.4355C9.83124 12.2499 9.50593 12.0451 9.23218 11.8205L10.8709 10.1818C10.9211 10.2455 10.9811 10.3069 11.0519 10.3669V10.0008L11.9425 9.11021L11.943 9.10974Z" fill="white"/>
<path opacity="0.5" d="M15.113 7.64487L13.4705 9.28737C13.4086 9.17065 13.328 9.06706 13.2286 8.978C13.2183 8.96815 13.2061 8.96018 13.1953 8.95128V9.56253L12.3047 10.4532V8.74737L14.0363 7.01581C14.1113 7.04393 14.1853 7.07487 14.258 7.10721C14.5814 7.25253 14.8664 7.43206 15.113 7.6444V7.64487Z" fill="white"/>
<path opacity="0.5" d="M12.3047 18.6188L13.1953 17.7277V18.8039H12.3047V18.6188Z" fill="white"/>
<path opacity="0.5" d="M16.156 14.7675C16.112 15.6024 15.7656 16.2647 15.1173 16.7555C14.6776 17.0892 14.1325 17.3161 13.4851 17.4385L16.1556 14.768L16.156 14.7675Z" fill="white"/>
<path opacity="0.25" d="M19.8413 6.93471C13.7527 9.07222 8.86648 13.7667 6.47164 19.7292C6.26211 19.5769 6.05914 19.4157 5.86367 19.2464C4.44523 17.6002 3.58789 15.4566 3.58789 13.1133C3.58789 7.92096 7.79773 3.71112 12.9901 3.71112C15.3334 3.71112 17.477 4.56846 19.1232 5.9869C19.382 6.2869 19.622 6.60331 19.8418 6.93471H19.8413Z" fill="white"/>
</svg>
