<svg width="24" height="24" viewBox="0 0 24 24" fill="none" xmlns="http://www.w3.org/2000/svg">
<path d="M12 24C18.6274 24 24 18.6274 24 12C24 5.37258 18.6274 0 12 0C5.37258 0 0 5.37258 0 12C0 18.6274 5.37258 24 12 24Z" fill="#FDD835"/>
<path opacity="0.5" d="M12 0C5.37281 0 0 5.37281 0 12C0 18.6272 5.37281 24 12 24C18.6272 24 24 18.6272 24 12C24 5.37281 18.6272 0 12 0ZM12 23.4844C5.65734 23.4844 0.515625 18.3427 0.515625 12C0.515625 5.65734 5.65734 0.515625 12 0.515625C18.3427 0.515625 23.4844 5.65734 23.4844 12C23.4844 18.3427 18.3427 23.4844 12 23.4844Z" fill="white"/>
<path opacity="0.5" d="M16.7879 0.993282L0.993389 16.7878C0.465576 15.5756 0.131357 14.258 0.0319824 12.8766L12.8767 0.0318756C14.2581 0.131251 15.5757 0.465469 16.7879 0.993282Z" fill="white"/>
<path opacity="0.5" d="M22.4574 6.11016L6.11018 22.4573C5.09346 21.8836 4.16908 21.1659 3.36377 20.3316L20.3316 3.36375C21.166 4.16907 21.8841 5.09344 22.4574 6.11016Z" fill="white"/>
<path opacity="0.5" d="M19.8413 2.91656L2.91615 19.8412C2.65131 19.5352 2.40193 19.215 2.16943 18.8827L18.8827 2.16937C19.2146 2.40187 19.5347 2.65125 19.8413 2.91656Z" fill="white"/>
<path opacity="0.5" d="M23.6236 9.00562L9.00566 23.6236C8.5641 23.5102 8.13285 23.3723 7.71191 23.2116L23.2111 7.71234C23.3719 8.13281 23.5102 8.56453 23.6232 9.00609L23.6236 9.00562Z" fill="white"/>
<path opacity="0.5" d="M21.7486 12.5194C21.7486 17.7117 17.5388 21.9216 12.3464 21.9216C9.42939 21.9216 6.82174 20.5931 5.09814 18.5077C6.81518 20.3639 9.27236 21.5259 12 21.5259C17.1924 21.5259 21.4022 17.3161 21.4022 12.1237C21.4022 9.84891 20.5941 7.76203 19.2488 6.13547C20.8008 7.81265 21.7486 10.0552 21.7486 12.5194Z" fill="white"/>
<path d="M12.0001 21.5259C17.1928 21.5259 21.4023 17.3164 21.4023 12.1238C21.4023 6.93107 17.1928 2.72157 12.0001 2.72157C6.8074 2.72157 2.5979 6.93107 2.5979 12.1238C2.5979 17.3164 6.8074 21.5259 12.0001 21.5259Z" fill="#F39E09"/>
<path d="M19.1251 5.98875C17.4784 4.56938 15.3343 3.71157 12.9901 3.71157C7.79774 3.71157 3.5879 7.92141 3.5879 13.1138C3.5879 15.458 4.44618 17.602 5.86509 19.2488C3.86446 17.5242 2.5979 14.9719 2.5979 12.1238C2.5979 6.93141 6.80774 2.72157 12.0001 2.72157C14.8477 2.72157 17.4006 3.98766 19.1251 5.98875Z" fill="#E88102"/>
<path d="M13.2286 9.72C13.492 9.95672 13.6237 10.2905 13.6237 10.7203H16.1606V9.97781C16.1606 9.97781 15.8517 9.2925 15.6604 9.00562C15.3271 8.50547 14.8593 8.12015 14.2579 7.84969C13.9275 7.70109 13.5731 7.59375 13.1953 7.52672V6.18562H12.3046V7.44515C12.2756 7.44515 12.0328 7.44609 11.9423 7.44937V6.18562H11.0517V7.54828C10.7221 7.61015 10.41 7.69969 10.1151 7.81734C9.49168 8.06625 9.0098 8.41406 8.66902 8.86125C8.45574 9.14109 8.15809 9.66656 8.15809 9.66656V10.4091C8.15809 11.5833 8.84199 12.5062 10.2093 13.178C10.4503 13.297 10.7311 13.4184 11.0517 13.5427V16.1311C10.9687 16.0847 10.8942 16.0322 10.829 15.9727C10.5365 15.7045 10.3903 15.2878 10.3903 14.722L7.83887 13.9795V14.722C7.83887 15.4181 8.01418 16.0331 8.36434 16.567C8.71449 17.1009 9.23668 17.5214 9.92996 17.8284C10.2829 17.9845 10.6565 18.1008 11.0512 18.1777V19.5473H11.9418V18.2822C12.0445 18.2869 12.1481 18.2892 12.2531 18.2892C12.2704 18.2892 12.2868 18.2887 12.3042 18.2883V19.5473H13.1948V18.2283C13.9711 18.1233 14.6118 17.8805 15.1162 17.4989C15.8123 16.972 16.1601 16.2473 16.1601 15.3244V14.5819C16.1601 14.5819 15.3754 13.1395 14.4496 12.6061C14.1028 12.4059 13.6846 12.2156 13.1953 12.0356V9.69469C13.2061 9.70359 13.2178 9.71203 13.2286 9.7214V9.72ZM11.0517 11.1089C10.8093 10.9041 10.6879 10.6777 10.6879 10.4302C10.6879 10.1334 10.8093 9.88687 11.0517 9.69047V11.1089ZM12.3046 16.373C12.2873 16.373 12.2709 16.3744 12.2536 16.3744C12.1448 16.3744 12.0412 16.3702 11.9423 16.3631V13.8605C12.0712 13.905 12.1917 13.9495 12.3046 13.9936V16.3734V16.373ZM12.3046 11.7305C12.1753 11.685 12.0548 11.6395 11.9423 11.5945V9.37453C12.0121 9.3689 12.0839 9.36515 12.1593 9.36515C12.209 9.36515 12.2573 9.36703 12.3046 9.36984V11.7305ZM13.2211 14.468C13.4845 14.6756 13.6162 14.9658 13.6162 15.338C13.6162 15.6666 13.4939 15.9216 13.2501 16.1025C13.2328 16.1156 13.2136 16.1269 13.1953 16.1391V14.4483C13.2037 14.4548 13.2131 14.4614 13.2211 14.468Z" fill="#DB6704"/>
<path d="M14.4502 11.8627C14.1033 11.6625 13.6852 11.4722 13.1958 11.2922V8.95125C13.2066 8.96016 13.2183 8.96859 13.2291 8.97797C13.4925 9.21469 13.6242 9.54844 13.6242 9.97828H16.1611C16.1611 9.33562 15.9942 8.76422 15.6609 8.26406C15.3277 7.76391 14.8598 7.37859 14.2584 7.10812C13.928 6.95953 13.5736 6.85219 13.1958 6.78516V5.44406H12.3052V6.70359C12.2761 6.70359 12.247 6.70266 12.218 6.70266C12.1252 6.70266 12.0337 6.70453 11.9433 6.70828V5.44453H11.0527V6.80719C10.7231 6.86906 10.4109 6.95859 10.1161 7.07625C9.49266 7.32516 9.01078 7.67297 8.67 8.12015C8.32922 8.56734 8.15906 9.08297 8.15906 9.66797C8.15906 10.8422 8.84297 11.7652 10.2103 12.4369C10.4513 12.5559 10.732 12.6773 11.0527 12.8016V15.39C10.9697 15.3436 10.8952 15.2911 10.83 15.2316C10.5375 14.9634 10.3912 14.5467 10.3912 13.9809H7.83984C7.83984 14.677 8.01516 15.292 8.36531 15.8259C8.71547 16.3598 9.23766 16.7803 9.93094 17.0873C10.2839 17.2434 10.6575 17.3597 11.0522 17.4366V18.8062H11.9428V17.5411C12.0455 17.5458 12.1491 17.5481 12.2541 17.5481C12.2714 17.5481 12.2878 17.5477 12.3052 17.5472V18.8062H13.1958V17.4872C13.972 17.3822 14.6128 17.1394 15.1172 16.7578C15.8133 16.2309 16.1611 15.5062 16.1611 14.5833C16.1611 13.4283 15.5906 12.5222 14.4506 11.865L14.4502 11.8627ZM12.1594 8.62265C12.2091 8.62265 12.2573 8.62453 12.3047 8.62734V10.988C12.1753 10.9425 12.0548 10.897 11.9423 10.852V8.63203C12.0122 8.6264 12.0839 8.62265 12.1594 8.62265ZM10.688 9.68812C10.688 9.3914 10.8094 9.14484 11.0517 8.94844V10.3669C10.8094 10.162 10.688 9.93562 10.688 9.68812ZM12.2536 15.6319C12.1448 15.6319 12.0412 15.6277 11.9423 15.6206V13.118C12.0712 13.1625 12.1917 13.207 12.3047 13.2511V15.6309C12.2873 15.6309 12.2709 15.6323 12.2536 15.6323V15.6319ZM13.2502 15.36C13.2328 15.3731 13.2136 15.3844 13.1953 15.3966V13.7058C13.2037 13.7123 13.2131 13.7189 13.2211 13.7255C13.4845 13.9331 13.6163 14.2233 13.6163 14.5955C13.6163 14.9241 13.4939 15.1791 13.2502 15.36Z" fill="#FDD835"/>
<path opacity="0.5" d="M10.1153 7.07484C10.3815 6.9689 10.6613 6.88593 10.9562 6.825L8.15869 9.6225C8.16713 9.05578 8.33729 8.55468 8.66916 8.11922C9.00994 7.6725 9.49228 7.32422 10.1153 7.07531V7.07484Z" fill="white"/>
<path opacity="0.5" d="M11.0518 5.44312H11.9429V5.83828L11.0518 6.7289V5.44312Z" fill="white"/>
<path opacity="0.5" d="M12.3375 5.44312L12.3047 5.47594V5.44312H12.3375Z" fill="white"/>
<path opacity="0.5" d="M15.6525 12.9155C15.3703 12.5133 14.9695 12.1622 14.4501 11.8631C14.1033 11.6625 13.6851 11.4727 13.1958 11.2922V10.5005L10.9397 12.7566C10.9762 12.7711 11.0137 12.7856 11.0522 12.8006V15.3886C10.9692 15.3427 10.8947 15.2897 10.8295 15.2302C10.537 14.962 10.3912 14.5453 10.3912 13.9795H9.71669L8.18481 15.5114C8.23872 15.6183 8.29919 15.7228 8.36528 15.8241C8.71544 16.358 9.23716 16.7784 9.93091 17.0855C10.2839 17.2416 10.6575 17.3578 11.0522 17.4342V17.5158L13.1958 15.3722V13.7062C13.2042 13.7128 13.2136 13.7189 13.2215 13.7255C13.485 13.9331 13.6167 14.2233 13.6167 14.5955C13.6167 14.7684 13.5825 14.9212 13.515 15.053L15.6525 12.9155ZM12.3047 15.6305C12.2873 15.6309 12.2709 15.6319 12.2536 15.6319C12.1448 15.6319 12.0412 15.6281 11.9423 15.6206V13.1175C12.0708 13.162 12.1917 13.2066 12.3047 13.2506V15.6305Z" fill="white"/>
<path opacity="0.5" d="M16.1607 9.97828H13.7175L15.5653 8.13046C15.5986 8.17406 15.63 8.21859 15.6605 8.26406C15.9942 8.76374 16.1607 9.33562 16.1607 9.97828Z" fill="white"/>
<path opacity="0.5" d="M7.83936 13.9795H8.77826L7.93451 14.8233C7.87123 14.5566 7.83936 14.2753 7.83936 13.9795Z" fill="white"/>
<path opacity="0.5" d="M11.943 9.10968V10.8155L10.2859 12.4725C10.2601 12.4603 10.2348 12.4476 10.21 12.4355C9.83124 12.2498 9.50593 12.045 9.23218 11.8205L10.8709 10.1817C10.9211 10.2455 10.9811 10.3069 11.0519 10.3669V10.0008L11.9425 9.11015L11.943 9.10968Z" fill="white"/>
<path opacity="0.5" d="M15.113 7.64484L13.4705 9.28734C13.4086 9.17062 13.328 9.06703 13.2286 8.97797C13.2183 8.96812 13.2061 8.96015 13.1953 8.95125V9.5625L12.3047 10.4531V8.74734L14.0363 7.01578C14.1113 7.0439 14.1853 7.07484 14.258 7.10718C14.5814 7.2525 14.8664 7.43203 15.113 7.64437V7.64484Z" fill="white"/>
<path opacity="0.5" d="M12.3047 18.6187L13.1953 17.7277V18.8039H12.3047V18.6187Z" fill="white"/>
<path opacity="0.5" d="M16.156 14.7675C16.112 15.6023 15.7656 16.2647 15.1173 16.7555C14.6776 17.0892 14.1325 17.3161 13.4851 17.4384L16.1556 14.768L16.156 14.7675Z" fill="white"/>
<path opacity="0.25" d="M19.8413 6.93468C13.7527 9.07218 8.86648 13.7667 6.47164 19.7292C6.26211 19.5769 6.05914 19.4156 5.86367 19.2464C4.44523 17.6002 3.58789 15.4566 3.58789 13.1133C3.58789 7.92093 7.79773 3.71109 12.9901 3.71109C15.3334 3.71109 17.477 4.56843 19.1232 5.98687C19.382 6.28687 19.622 6.60328 19.8418 6.93468H19.8413Z" fill="white"/>
</svg>
