<svg width="49" height="49" viewBox="0 0 49 49" fill="none" xmlns="http://www.w3.org/2000/svg">
<path d="M30.4778 10.1147C29.9325 11.4416 28.4079 12.0751 27.0825 11.5262L21.6849 9.29228C20.1773 8.6679 18.5785 8.35054 16.9763 8.33435L18.4765 3.32823C20.5003 3.57068 22.4991 4.0792 24.4181 4.85906L29.0665 6.74931C30.3901 7.2871 31.0217 8.79346 30.4778 10.1147Z" fill="url(#paint0_linear_3_641)"/>
<path d="M33.8218 10.6746C33.2003 11.9362 31.6688 12.4507 30.4111 11.8207L25.2891 9.2568C23.2955 8.2583 21.0894 7.82819 18.9032 7.97661L17.0491 2.81237C20.8862 2.60522 24.7484 3.37736 28.2556 5.10498L32.6689 7.28004C33.9255 7.89896 34.4415 9.4184 33.8218 10.6746Z" fill="url(#paint1_linear_3_641)"/>
<path d="M36.4611 10.041C35.8431 11.3356 34.2859 11.8838 32.9929 11.2624L27.7273 8.73323C25.6779 7.74819 23.4188 7.34527 21.1879 7.53125L19.2253 2.30198C23.1417 2.02998 27.0967 2.75468 30.7018 4.45812L35.2383 6.60278C36.53 7.21294 37.0773 8.75196 36.4611 10.041Z" fill="url(#paint2_linear_3_641)"/>
<path d="M24.5 32.5C30.8155 32.5 35.9353 27.3802 35.9353 21.0647C35.9353 14.7492 30.8155 9.62941 24.5 9.62941C18.1845 9.62941 13.0647 14.7492 13.0647 21.0647C13.0647 27.3802 18.1845 32.5 24.5 32.5Z" fill="url(#paint3_linear_3_641)"/>
<path d="M24.4999 30.2882C29.5939 30.2882 33.7234 26.1587 33.7234 21.0647C33.7234 15.9707 29.5939 11.8412 24.4999 11.8412C19.4059 11.8412 15.2764 15.9707 15.2764 21.0647C15.2764 26.1587 19.4059 30.2882 24.4999 30.2882Z" fill="url(#paint4_linear_3_641)"/>
<path d="M24.4999 29.1588C28.9701 29.1588 32.594 25.535 32.594 21.0647C32.594 16.5944 28.9701 12.9706 24.4999 12.9706C20.0296 12.9706 16.4058 16.5944 16.4058 21.0647C16.4058 25.535 20.0296 29.1588 24.4999 29.1588Z" fill="url(#paint5_linear_3_641)"/>
<path d="M25.4112 19.5619V16.8192C26.6322 16.9132 26.9891 17.5143 27.609 17.5143C28.4355 17.5143 28.7737 16.4811 28.7737 15.9739C28.7737 14.6777 26.5759 14.3772 25.4112 14.3396V13.87C25.4112 13.607 25.0543 13.3628 24.6974 13.3628C24.2841 13.3628 23.9836 13.607 23.9836 13.87V14.396C21.9923 14.6778 20.2265 15.8237 20.2265 18.2094C20.2265 20.6139 22.2553 21.4216 23.9836 22.0791V25.1223C22.5935 24.8781 21.9548 23.7697 21.1658 23.7697C20.452 23.7697 19.8884 24.7089 19.8884 25.3477C19.8884 26.55 21.7294 27.7147 23.9836 27.7898V28.2594C23.9836 28.5225 24.2841 28.7666 24.6974 28.7666C25.0543 28.7666 25.4112 28.5224 25.4112 28.2594V27.7147C27.609 27.3578 29.1119 25.9488 29.1119 23.6195C29.1119 21.0834 27.1206 20.2005 25.4112 19.5619ZM24.1713 19.111C23.4576 18.8104 22.9691 18.4723 22.9691 17.9275C22.9691 17.4767 23.3261 17.0446 24.1713 16.8755V19.111ZM25.2234 25.1035V22.5863C25.8996 22.9056 26.3693 23.3001 26.3693 23.92C26.3692 24.5963 25.862 24.9532 25.2234 25.1035Z" fill="url(#paint6_linear_3_641)"/>
<path d="M13.0732 21.4882C13.2961 27.6075 18.3262 32.5 24.4999 32.5C30.6735 32.5 35.7036 27.6075 35.9266 21.4882H13.0732Z" fill="url(#paint7_linear_3_641)"/>
<path d="M35.1551 25.2238C35.1155 25.3254 35.0741 25.4261 35.0318 25.5268C33.2934 29.6256 29.2322 32.5 24.5 32.5C18.1847 32.5 13.0647 27.38 13.0647 21.0647C13.0647 19.3471 13.4431 17.7188 14.1226 16.2572C14.2619 15.9541 14.4153 15.6595 14.5809 15.3725H25.3038L35.1551 25.2238Z" fill="url(#paint8_linear_3_641)"/>
<path d="M35.5047 11.4792L33.4157 9.80559C33.3238 9.7365 33.2312 9.66864 33.1379 9.60192C30.623 7.80483 27.5412 6.98921 24.4564 7.18479C21.8766 7.34836 20.8416 7.49594 17.4709 9.17566C16.8831 9.46855 16.7831 10.0899 17.2475 10.5542L17.3747 10.6814C19.9097 11.7982 22.3341 13.1457 24.6179 14.7059C25.9292 15.6017 26.2362 17.4075 25.3017 18.6916C24.4511 19.8604 22.8563 20.1937 21.6051 19.47C19.4568 18.2272 17.0716 17.4345 14.5965 17.1485C14.1236 17.0938 13.6462 17.0911 13.1714 17.1249C11.6756 17.2314 8.0548 17.4638 6.84972 17.3142C6.83862 17.3128 6.82742 17.3115 6.81622 17.3101C3.66177 16.9136 1.14676 14.4843 0.630804 11.3468L0.600122 11.16C-0.0670782 7.10742 2.6789 3.2805 6.73245 2.61396L13.732 1.463L18.1394 0.78055C25.0555 -0.234415 32.0926 1.52822 37.6973 5.67909L39.0549 6.76116C40.3651 7.73114 40.6355 9.5765 39.6592 10.8836C38.6796 12.1955 36.8139 12.4626 35.5047 11.4792Z" fill="url(#paint9_linear_3_641)"/>
<path d="M25.3017 18.6918C24.4512 19.8606 22.8564 20.1939 21.6052 19.4701C19.2355 18.0992 16.5778 17.276 13.829 17.0763C13.7876 17.0733 13.7464 17.0701 13.7052 17.0667C9.06067 16.6816 8.80985 9.97322 13.4123 9.23986C13.743 9.18715 14.082 9.23092 14.3885 9.36598L17.3747 10.6816C19.9097 11.7983 22.3342 13.1458 24.6179 14.7061C25.9293 15.602 26.2362 17.4078 25.3017 18.6918Z" fill="url(#paint10_linear_3_641)"/>
<path d="M44.4949 48.5H4.50505C3.33272 48.5 2.38232 47.5496 2.38232 46.3773V33.7235H46.6176V46.3773C46.6176 47.5496 45.6672 48.5 44.4949 48.5Z" fill="url(#paint11_linear_3_641)"/>
<path d="M2.38232 33.7235V37.4882L13.3941 48.5H44.4949C45.6672 48.5 46.6176 47.5496 46.6176 46.3773V33.7235H2.38232Z" fill="url(#paint12_linear_3_641)"/>
<path d="M2.38232 42.1941V46.3773C2.38232 47.5496 3.33272 48.5 4.50505 48.5H44.4949C45.6672 48.5 46.6176 47.5496 46.6176 46.3773V42.1941H2.38232Z" fill="url(#paint13_linear_3_641)"/>
<path d="M46.8826 37.4882H2.11741C1.22414 37.4882 0.5 36.7641 0.5 35.8708V30.8059C0.5 29.9126 1.22414 29.1885 2.11741 29.1885H46.8826C47.7759 29.1885 48.5 29.9126 48.5 30.8059V35.8708C48.5 36.7641 47.7759 37.4882 46.8826 37.4882Z" fill="url(#paint14_linear_3_641)"/>
<path d="M0.5 32.6882V35.8708C0.5 36.7641 1.22414 37.4882 2.11741 37.4882H46.8826C47.7759 37.4882 48.5 36.7641 48.5 35.8708V32.6882H0.5Z" fill="url(#paint15_linear_3_641)"/>
<defs>
<linearGradient id="paint0_linear_3_641" x1="23.2906" y1="10.8863" x2="23.8615" y2="8.48033" gradientUnits="userSpaceOnUse">
<stop stop-color="#FFEEE6"/>
<stop offset="1" stop-color="#FFB09E"/>
</linearGradient>
<linearGradient id="paint1_linear_3_641" x1="24.5965" y1="10.8265" x2="25.3832" y2="7.87747" gradientUnits="userSpaceOnUse">
<stop stop-color="#FFEEE6"/>
<stop offset="1" stop-color="#FFB09E"/>
</linearGradient>
<linearGradient id="paint2_linear_3_641" x1="26.502" y1="10.7273" x2="27.4807" y2="7.30176" gradientUnits="userSpaceOnUse">
<stop stop-color="#FFEEE6"/>
<stop offset="1" stop-color="#FFB09E"/>
</linearGradient>
<linearGradient id="paint3_linear_3_641" x1="19.6059" y1="16.1706" x2="33.8193" y2="30.384" gradientUnits="userSpaceOnUse">
<stop stop-color="#FEE45A"/>
<stop offset="1" stop-color="#FE9738"/>
</linearGradient>
<linearGradient id="paint4_linear_3_641" x1="28.4474" y1="25.0122" x2="16.9831" y2="13.5479" gradientUnits="userSpaceOnUse">
<stop stop-color="#FEE45A"/>
<stop offset="1" stop-color="#FE9738"/>
</linearGradient>
<linearGradient id="paint5_linear_3_641" x1="21.0358" y1="17.6006" x2="31.0963" y2="27.6611" gradientUnits="userSpaceOnUse">
<stop stop-color="#FEE45A"/>
<stop offset="1" stop-color="#FE9738"/>
</linearGradient>
<linearGradient id="paint6_linear_3_641" x1="20.9289" y1="18.341" x2="29.9171" y2="24.7881" gradientUnits="userSpaceOnUse">
<stop stop-color="#FE9738"/>
<stop offset="1" stop-color="#F46700"/>
</linearGradient>
<linearGradient id="paint7_linear_3_641" x1="24.4999" y1="24.1706" x2="24.4999" y2="32.9236" gradientUnits="userSpaceOnUse">
<stop stop-color="#FE7701" stop-opacity="0"/>
<stop offset="0.209" stop-color="#FA7303" stop-opacity="0.209"/>
<stop offset="0.4275" stop-color="#ED6809" stop-opacity="0.428"/>
<stop offset="0.6502" stop-color="#D85613" stop-opacity="0.65"/>
<stop offset="0.8745" stop-color="#BB3C21" stop-opacity="0.875"/>
<stop offset="1" stop-color="#A72B2B"/>
</linearGradient>
<linearGradient id="paint8_linear_3_641" x1="25.116" y1="27.2063" x2="21.1989" y2="14.8567" gradientUnits="userSpaceOnUse">
<stop stop-color="#FE7701" stop-opacity="0"/>
<stop offset="0.1854" stop-color="#F87204" stop-opacity="0.185"/>
<stop offset="0.4314" stop-color="#E7630C" stop-opacity="0.431"/>
<stop offset="0.7114" stop-color="#CB4B19" stop-opacity="0.711"/>
<stop offset="1" stop-color="#A72B2B"/>
</linearGradient>
<linearGradient id="paint9_linear_3_641" x1="16.2527" y1="-2.34839" x2="22.088" y2="15.0634" gradientUnits="userSpaceOnUse">
<stop stop-color="#FFEEE6"/>
<stop offset="1" stop-color="#FFB09E"/>
</linearGradient>
<linearGradient id="paint10_linear_3_641" x1="17.9631" y1="15.0814" x2="18.5278" y2="21.7637" gradientUnits="userSpaceOnUse">
<stop stop-color="#F89580" stop-opacity="0"/>
<stop offset="0.3577" stop-color="#E98A75" stop-opacity="0.359"/>
<stop offset="0.9972" stop-color="#C5715A"/>
</linearGradient>
<linearGradient id="paint11_linear_3_641" x1="21.6949" y1="34.2319" x2="32.4237" y2="57.3837" gradientUnits="userSpaceOnUse">
<stop stop-color="#D9B1EE"/>
<stop offset="1" stop-color="#814AA0"/>
</linearGradient>
<linearGradient id="paint12_linear_3_641" x1="24.5" y1="50.1" x2="24.5" y2="21.834" gradientUnits="userSpaceOnUse">
<stop stop-color="#5B3374" stop-opacity="0"/>
<stop offset="1" stop-color="#5B3374"/>
</linearGradient>
<linearGradient id="paint13_linear_3_641" x1="24.5" y1="44.3588" x2="24.5" y2="49.1279" gradientUnits="userSpaceOnUse">
<stop stop-color="#5B3374" stop-opacity="0"/>
<stop offset="1" stop-color="#5B3374"/>
</linearGradient>
<linearGradient id="paint14_linear_3_641" x1="20.8471" y1="26.7263" x2="30.7501" y2="44.6517" gradientUnits="userSpaceOnUse">
<stop stop-color="#D9B1EE"/>
<stop offset="1" stop-color="#814AA0"/>
</linearGradient>
<linearGradient id="paint15_linear_3_641" x1="24.5" y1="34.1941" x2="24.5" y2="39.0172" gradientUnits="userSpaceOnUse">
<stop stop-color="#5B3374" stop-opacity="0"/>
<stop offset="1" stop-color="#5B3374"/>
</linearGradient>
</defs>
</svg>
